# xmcd
#
# Track frame offsets: 
#        150
#        24947
#        48357
#
# Disc length: 973 seconds
#
# Revision: 5
# Processed by: cddbd v1.5.2PL0 Copyright (c) Steve Scherf et al.
# Submitted via: ExactAudioCopy v1.0b6
#
DISCID=1803cb03
DTITLE=中岛みゆき - 命の别名
DYEAR=1998
DGENRE=JPop
TTITLE0=命の别名
TTITLE1=糸
TTITLE2=命の别名 (TV MIX)
EXTD=YEAR: 1994
EXTT0=
EXTT1=
EXTT2=
PLAYORDER=
